<svg width="45" height="45" viewBox="0 0 45 45" fill="none" xmlns="http://www.w3.org/2000/svg">
<path d="M19.485 16.7625C19.89 16.3575 19.845 15.3675 19.395 14.9175L15.9075 11.43C15.5025 11.025 14.67 11.0925 14.2425 11.52L13.365 12.3975L18.6075 17.64L19.485 16.7625Z" fill="#61D0D4"/>
<path d="M23.04 28.2825C21.4425 28.2825 19.755 27.6975 18.4275 26.3925C16.1775 24.1425 16.2225 20.79 17.6175 18.7425L12.3975 13.5C11.4975 14.895 11.295 16.9425 11.835 19.3275C12.5325 22.3425 14.3325 25.4025 16.875 27.9675C19.395 30.4875 22.59 32.355 25.605 33.0975C28.0125 33.6825 30.105 33.5025 31.5 32.625L26.2575 27.36C25.38 27.945 24.2325 28.2825 23.04 28.2825Z" fill="#61D0D4"/>
<path d="M22.5 0C10.08 0 0 10.08 0 22.5C0 34.92 10.08 45 22.5 45C34.92 45 45 34.92 45 22.5C45 10.08 34.92 0 22.5 0ZM34.5375 31.815L33.1425 33.21C33.0975 33.255 33.075 33.2775 33.03 33.3C31.86 34.3575 30.195 34.8975 28.2375 34.8975C27.2925 34.8975 26.3025 34.7625 25.245 34.515C21.915 33.705 18.5625 31.7475 15.8175 29.0025C13.0725 26.2575 11.16 22.95 10.395 19.6425C9.6525 16.425 10.1475 13.635 11.745 11.925C11.7675 11.9025 11.79 11.88 11.79 11.8575L13.185 10.4625C13.7025 9.945 14.4225 9.6525 15.165 9.6525C15.8625 9.6525 16.4925 9.9 16.9425 10.3725L20.43 13.86C21.465 14.895 21.51 16.8075 20.52 17.7975L19.1925 19.125C17.7975 20.5425 17.6175 23.49 19.4625 25.335C21.375 27.2475 24.4575 27.1575 25.8525 25.785L27.1575 24.48C27.675 23.9625 28.395 23.67 29.1375 23.67C29.835 23.67 30.465 23.9175 30.915 24.39L34.4025 27.8775C35.4825 28.89 35.5275 30.8025 34.5375 31.815Z" fill="#61D0D4"/>
<path d="M29.9025 25.4025C29.4975 24.9975 28.665 25.065 28.2375 25.4925L27.36 26.37L32.6025 31.6125L33.48 30.735C33.885 30.33 33.84 29.34 33.39 28.89L29.9025 25.4025Z" fill="#61D0D4"/>
</svg>
