<svg width="45" height="45" viewBox="0 0 45 45" fill="none" xmlns="http://www.w3.org/2000/svg">
<path d="M10.4175 16.8975L22.68 22.5675L34.4925 17.1675V15.0525H10.4175V16.8975Z" fill="#61D0D4"/>
<path d="M22.995 24.3225C22.9725 24.3225 22.95 24.4125 22.9275 24.4125C22.86 24.435 22.7925 24.5025 22.7025 24.5025C22.635 24.5025 22.5675 24.435 22.5 24.4125C22.4775 24.4125 22.4775 24.3675 22.455 24.3675C22.4325 24.3675 22.365 24.345 22.3425 24.3225L10.4175 18.81V30.1275H34.4925V19.0575L23.04 24.2775C23.0175 24.3 23.0175 24.3225 22.995 24.3225Z" fill="#61D0D4"/>
<path d="M22.5 0C10.08 0 0 10.08 0 22.5C0 34.92 10.08 45 22.5 45C34.92 45 45 34.92 45 22.5C45 10.08 34.9425 0 22.5 0ZM36.2925 31.0725C36.2925 31.545 35.91 31.9275 35.4375 31.9275H9.6975C9.225 31.9275 8.8425 31.545 8.8425 31.0725V14.1075C8.8425 13.635 9.225 13.2525 9.6975 13.2525H35.415C35.8875 13.2525 36.27 13.635 36.27 14.1075V31.0725H36.2925Z" fill="#61D0D4"/>
</svg>
