<svg width="45" height="45" viewBox="0 0 45 45" fill="none" xmlns="http://www.w3.org/2000/svg">
<path d="M22.5 0C10.08 0 0 10.08 0 22.5C0 34.92 10.08 45 22.5 45C34.92 45 45 34.92 45 22.5C45 10.08 34.92 0 22.5 0ZM33.6825 23.625H23.85V33.48C23.85 34.0875 23.445 34.5825 22.8375 34.5825C22.23 34.5825 21.825 34.0875 21.825 33.48V23.625H11.475C10.8675 23.625 10.3725 23.1075 10.3725 22.5C10.3725 21.8925 10.8675 21.375 11.475 21.375H21.825V11.2725C21.825 10.665 22.23 10.17 22.8375 10.17C23.445 10.17 23.85 10.665 23.85 11.2725V21.375H33.6825C34.29 21.375 34.785 21.8925 34.785 22.5C34.785 23.1075 34.29 23.625 33.6825 23.625Z" fill="#61D0D4"/>
</svg>
