<svg width="45" height="45" viewBox="0 0 45 45" fill="none" xmlns="http://www.w3.org/2000/svg">
<path d="M22.5 9.315C15.2325 9.315 9.315 15.2325 9.315 22.5C9.315 29.7675 15.2325 35.685 22.5 35.685C29.7675 35.685 35.685 29.7675 35.685 22.5C35.685 15.2325 29.7675 9.315 22.5 9.315ZM29.115 19.0575C28.6425 19.3725 28.0125 19.26 27.675 18.7875C26.4375 16.965 24.48 15.9075 22.3425 15.9075C18.7425 15.9075 15.8175 18.855 15.8175 22.5C15.8175 26.145 18.7875 29.0925 22.4325 29.0925C24.255 29.0925 25.9875 28.35 27.2475 27.0225C27.63 26.6175 28.2825 26.595 28.71 26.9775C29.115 27.36 29.1375 28.0125 28.755 28.44C27.135 30.15 24.84 31.14 22.455 31.14C17.6625 31.14 13.77 27.27 13.77 22.5C13.77 17.73 17.6175 13.86 22.365 13.86C25.2 13.86 27.765 15.2325 29.385 17.64C29.7 18.1125 29.5875 18.7425 29.115 19.0575Z" fill="#61D0D4"/>
<path d="M22.5 0C10.08 0 0 10.08 0 22.5C0 34.92 10.08 45 22.5 45C34.92 45 45 34.92 45 22.5C45 10.08 34.92 0 22.5 0ZM22.5 37.7325C14.1075 37.7325 7.2675 30.8925 7.2675 22.5C7.2675 14.1075 14.1075 7.2675 22.5 7.2675C30.8925 7.2675 37.7325 14.1075 37.7325 22.5C37.7325 30.8925 30.8925 37.7325 22.5 37.7325Z" fill="#61D0D4"/>
</svg>
