<svg width="21" height="21" viewBox="0 0 21 21" fill="none" xmlns="http://www.w3.org/2000/svg">
<path d="M12 7H11C11 7.55228 11.4477 8 12 8V7ZM12 3H13H12ZM9 0V-1C8.60481 -1 8.24669 -0.767266 8.08619 -0.406138L9 0ZM5 9L4.08619 8.59386C4.02936 8.72172 4 8.86008 4 9H5ZM5 20H4C4 20.5523 4.44772 21 5 21V20ZM16.28 20L16.2913 19H16.28V20ZM18.28 18.3L17.2916 18.1484L17.2913 18.1501L18.28 18.3ZM19.66 9.3L20.6484 9.45156L20.6487 9.45006L19.66 9.3ZM17.66 7V8.00006L17.6713 7.99994L17.66 7ZM5 21C5.55228 21 6 20.5523 6 20C6 19.4477 5.55228 19 5 19V21ZM5 10C5.55228 10 6 9.55229 6 9C6 8.44771 5.55228 8 5 8V10ZM13 7V3H11V7H13ZM13 3C13 0.790861 11.2091 -1 9 -1V1C10.1046 1 11 1.89543 11 3H13ZM8.08619 -0.406138L4.08619 8.59386L5.91381 9.40614L9.91381 0.406138L8.08619 -0.406138ZM4 9V20H6V9H4ZM5 21H16.28V19H5V21ZM16.2687 20.9999C17.7646 21.0168 19.0444 19.929 19.2687 18.4499L17.2913 18.1501C17.2165 18.6431 16.7899 19.0057 16.2913 19.0001L16.2687 20.9999ZM19.2684 18.4516L20.6484 9.45156L18.6716 9.14844L17.2916 18.1484L19.2684 18.4516ZM20.6487 9.45006C20.7808 8.57985 20.524 7.69553 19.9465 7.03134L18.4373 8.34369C18.6298 8.56509 18.7154 8.85986 18.6713 9.14994L20.6487 9.45006ZM19.9465 7.03134C19.3689 6.36714 18.5288 5.9901 17.6487 6.00006L17.6713 7.99994C17.9647 7.99661 18.2447 8.1223 18.4373 8.34369L19.9465 7.03134ZM17.66 6H12V8H17.66V6ZM5 19H2V21H5V19ZM2 19C1.44772 19 1 18.5523 1 18H-1C-1 19.6569 0.343146 21 2 21V19ZM1 18V11H-1V18H1ZM1 11C1 10.4477 1.44772 10 2 10V8C0.343146 8 -1 9.34315 -1 11H1ZM2 10H5V8H2V10Z" fill="#10182F"/>
</svg>
