<svg width="43" height="43" viewBox="0 0 43 43" fill="none" xmlns="http://www.w3.org/2000/svg">
<path fill-rule="evenodd" clip-rule="evenodd" d="M42.1276 21.595C42.1276 33.0468 32.8194 42.3304 21.337 42.3304C20.9492 42.3304 20.564 42.3198 20.1815 42.2989L28.587 27.7401C29.9992 26.0845 30.8514 23.939 30.8514 21.595C30.8514 18.1777 29.0402 15.1824 26.323 13.5117H40.4887C41.544 15.9957 42.1276 18.7273 42.1276 21.595ZM25.6176 30.0718C24.3309 30.7193 22.8766 31.0841 21.337 31.0841C17.4834 31.0841 14.1649 28.7991 12.6692 25.5136L3.89175 10.3106C1.77559 13.558 0.546326 17.4333 0.546326 21.595C0.546326 32.1352 8.43168 40.8387 18.6398 42.1575L25.6176 30.0718ZM21.337 0.859528C14.5838 0.859528 8.58256 4.07079 4.78478 9.04576L11.8289 21.2465C12.0085 16.2839 16.0091 12.2929 20.9846 12.1123V12.1059H21.337H39.8278C36.3749 5.42672 29.3907 0.859528 21.337 0.859528ZM21.337 28.9754C25.4239 28.9754 28.7371 25.6711 28.7371 21.595C28.7371 17.5189 25.4239 14.2146 21.337 14.2146C17.25 14.2146 13.9369 17.5189 13.9369 21.595C13.9369 25.6711 17.25 28.9754 21.337 28.9754Z" fill="#56AFEF"/>
<mask id="mask0_0_95" style="mask-type:luminance" maskUnits="userSpaceOnUse" x="0" y="0" width="43" height="43">
<path fill-rule="evenodd" clip-rule="evenodd" d="M42.1276 21.595C42.1276 33.0468 32.8194 42.3304 21.337 42.3304C20.9492 42.3304 20.564 42.3198 20.1815 42.2989L28.587 27.7401C29.9992 26.0845 30.8514 23.939 30.8514 21.595C30.8514 18.1777 29.0402 15.1824 26.323 13.5117H40.4887C41.544 15.9957 42.1276 18.7273 42.1276 21.595ZM25.6176 30.0718C24.3309 30.7193 22.8766 31.0841 21.337 31.0841C17.4834 31.0841 14.1649 28.7991 12.6692 25.5136L3.89175 10.3106C1.77559 13.558 0.546326 17.4333 0.546326 21.595C0.546326 32.1352 8.43168 40.8387 18.6398 42.1575L25.6176 30.0718ZM21.337 0.859528C14.5838 0.859528 8.58256 4.07079 4.78478 9.04576L11.8289 21.2465C12.0085 16.2839 16.0091 12.2929 20.9846 12.1123V12.1059H21.337H39.8278C36.3749 5.42672 29.3907 0.859528 21.337 0.859528ZM21.337 28.9754C25.4239 28.9754 28.7371 25.6711 28.7371 21.595C28.7371 17.5189 25.4239 14.2146 21.337 14.2146C17.25 14.2146 13.9369 17.5189 13.9369 21.595C13.9369 25.6711 17.25 28.9754 21.337 28.9754Z" fill="white"/>
</mask>
<g mask="url(#mask0_0_95)">
<path fill-rule="evenodd" clip-rule="evenodd" d="M3.67856 7.11284L12.0036 23.1209L13.0959 18.4573L16.151 14.5818L21.4361 13.1863L26.8065 12.8802L46.5269 12.609L26.0666 -1.66238L11.974 0.897285L3.67856 7.11284Z" fill="#FA6758"/>
<path fill-rule="evenodd" clip-rule="evenodd" d="M24.4582 12.8211L27.6496 16.0892L29.7027 19.3573V22.1029L28.1679 26.3251L19.1834 43.207L23.9448 43.4678L34.283 39.989L41.5715 30.9832L44.0128 21.9327L42.9652 14.8392L41.6521 12.9619L24.4582 12.8211Z" fill="#F5D923"/>
<path fill-rule="evenodd" clip-rule="evenodd" d="M3.77903 9.11032L7.35793 15.1145L12.5522 22.996L15.1696 27.3479L17.4394 29.0495L20.3686 29.878L24.3453 29.7874L26.6255 28.869L18.5069 43.6676L4.23741 38.1405L-1.69669 25.2193L-1.04216 15.5112L3.77903 9.11032Z" fill="#6CE84E"/>
</g>
</svg>
