<svg width="44" height="43" viewBox="0 0 44 43" fill="none" xmlns="http://www.w3.org/2000/svg">
<path fill-rule="evenodd" clip-rule="evenodd" d="M42.2571 21.595C42.2571 33.0468 32.8134 42.3304 21.164 42.3304C9.51453 42.3304 0.0708008 33.0468 0.0708008 21.595C0.0708008 10.1431 9.51453 0.859528 21.164 0.859528C32.8134 0.859528 42.2571 10.1431 42.2571 21.595ZM38.6816 21.595C38.6816 32.2704 32.6595 38.6196 21.761 38.6196C10.8625 38.6196 2.80453 32.2704 2.80453 21.595C2.80453 20.7867 2.74494 19.99 2.68643 19.2078C2.54215 17.279 2.40445 15.4382 3.18305 13.7284C6.25915 6.97357 13.1752 2.26532 21.2138 2.26532C24.9565 2.26532 28.4558 3.2859 31.4375 5.05843C31.6261 5.17057 31.5362 5.44743 31.4462 5.72468C31.359 5.99329 31.2717 6.26226 31.4375 6.38214C36.271 9.87782 38.6816 15.0422 38.6816 21.595Z" fill="#F5A623"/>
<path fill-rule="evenodd" clip-rule="evenodd" d="M3.89436 5.21898L6.73064 9.24245L11.5952 9.67661L16.3114 7.01878L14.8265 10.1108C14.8265 10.1108 15.5488 11.1552 15.5488 12.1392H20.2453C20.2453 12.1392 21.1887 12.7463 20.3759 13.6877C19.5631 14.6291 16.2233 17.1792 16.2233 17.1792L16.2006 19.8827L13.1204 19.9479C13.1204 19.9479 13.0271 23.6223 15.501 24.3002C17.9749 24.978 21.2266 23.3213 21.2266 23.3213C21.2266 23.3213 23.7108 22.9448 24.6544 24.0417C25.598 25.1386 25.4923 25.4846 24.2869 25.8789C23.0814 26.2733 20.3638 28.5546 18.2822 28.5546C16.2006 28.5546 15.5464 28.4667 15.5464 28.4667C15.5464 28.4667 16.3947 29.7497 18.1236 30.2967C19.8525 30.8438 27.8582 32.7991 31.8494 25.8165C32.6632 24.0417 32.6405 20.6786 32.6405 20.6786L34.3467 21.8129C34.3467 21.8129 35.4613 17.4761 34.3467 14.8076L35.6981 14.6267C35.6981 14.6267 33.3398 9.66014 27.9091 8.33946L31.0524 7.51644C31.0524 7.51644 28.9312 5.53851 25.536 4.90598L31.5056 5.05905L37.7618 10.8446L40.4243 19.2426L39.5285 27.7264L35.4062 34.5158L30.1036 38.888L23.3615 40.7606L12.716 39.3249L3.075 30.6657L1.15237 17.566L2.67995 11.9085L3.89436 5.21898Z" fill="#F5A623"/>
</svg>
