<svg width="44" height="42" viewBox="0 0 44 42" fill="none" xmlns="http://www.w3.org/2000/svg">
<path fill-rule="evenodd" clip-rule="evenodd" d="M41.7771 29.475C39.0076 36.7536 31.972 41.9246 23.7302 41.9246C14.6603 41.9246 7.05119 35.6623 4.98079 27.2205L11.6232 15.0597C11.6232 15.0597 7.57652 18.4195 4.43204 22.0511C4.71965 11.6271 13.2496 3.26532 23.7302 3.26532C34.3924 3.26532 43.0358 11.9195 43.0358 22.595C43.0358 23.371 42.9901 24.1363 42.9013 24.8883H41.7269H31.2561H15.5498C15.5498 29.9546 19.0658 34.0617 23.4029 34.0617C26.3097 34.0617 28.8476 32.217 30.2055 29.475H41.7771ZM23.4029 12.4387C26.9604 12.4387 29.9654 15.2019 30.9309 18.9911H15.875C16.8404 15.2019 19.8455 12.4387 23.4029 12.4387Z" fill="#68D1FF"/>
<path fill-rule="evenodd" clip-rule="evenodd" d="M12.6891 39.4811C7.97733 41.5292 4.06805 41.7886 2.05492 39.7755C-2.02255 35.698 3.22273 23.8418 13.7706 13.294C24.3184 2.74615 36.1746 -2.49913 40.252 1.57834C42.6377 3.96401 41.832 9.01251 38.64 14.9038C40.8416 10.203 41.7133 6.18044 39.9693 4.43431C35.7752 0.23505 25.4763 6.19783 15.8742 15.7999C6.27211 25.402 0.094023 35.4308 4.12318 39.46C5.57694 40.9137 8.88263 40.7551 12.6891 39.4811Z" fill="#68D1FF"/>
</svg>
