<svg width="44" height="43" viewBox="0 0 44 43" fill="none" xmlns="http://www.w3.org/2000/svg">
<path fill-rule="evenodd" clip-rule="evenodd" d="M21.2789 42.3304C32.9284 42.3304 42.3721 33.0468 42.3721 21.595C42.3721 10.1431 32.9284 0.859528 21.2789 0.859528C9.62949 0.859528 0.18576 10.1431 0.18576 21.595C0.18576 33.0468 9.62949 42.3304 21.2789 42.3304Z" fill="#56AFEF"/>
<path fill-rule="evenodd" clip-rule="evenodd" d="M22.3542 13.628L20.9764 6.4827L19.5987 13.628C18.8307 13.7591 18.0996 13.9981 17.4217 14.3286L19.5438 15.7923C20.0028 15.6799 20.4826 15.6204 20.9764 15.6204C24.2849 15.6204 26.9669 18.2953 26.9669 21.595C26.9669 24.8947 24.2849 27.5696 20.9764 27.5696C17.6679 27.5696 14.9859 24.8947 14.9859 21.595C14.9859 21.0897 15.0488 20.599 15.1672 20.1303L13.714 18.0025C13.3713 18.6903 13.1239 19.4338 12.9891 20.2157L5.83606 21.595L12.9891 22.9742C13.5684 26.335 16.2282 28.9863 19.5987 29.562L20.9764 36.7072L22.3542 29.562C25.7246 28.9863 28.3844 26.335 28.9637 22.9742L36.1168 21.595L28.9637 20.2157C28.3844 16.855 25.7246 14.2036 22.3542 13.628Z" fill="white"/>
<path fill-rule="evenodd" clip-rule="evenodd" d="M7.56958 8.18981L23.2318 19.3669L18.7466 23.852L7.56958 8.18981Z" fill="#F54747"/>
<path fill-rule="evenodd" clip-rule="evenodd" d="M34.3798 34.9645L18.7176 23.7874L23.2028 19.3023L34.3798 34.9645Z" fill="#F8D8D8"/>
<path fill-rule="evenodd" clip-rule="evenodd" d="M20.9764 24.758C22.728 24.758 24.1479 23.3419 24.1479 21.595C24.1479 19.8481 22.728 18.4319 20.9764 18.4319C19.2249 18.4319 17.805 19.8481 17.805 21.595C17.805 23.3419 19.2249 24.758 20.9764 24.758Z" fill="white"/>
</svg>
